<?xml version="1.0" encoding="UTF-8"?>
<svg id="Livello_2" data-name="Livello 2" xmlns="http://www.w3.org/2000/svg" viewBox="0 0 352.55 350.93">
  <g id="Livello_1-2" data-name="Livello 1">
    <g>
      <g>
        <path d="M300.22,20.91c1.06,1.27,16.37,3.76,19.53,5.59,1.21.7,2.41,1.38,1.98,3.06-.8,3.13-18.19,5.27-21.5,7.42-1.47,3.23-4.09,19.16-6.15,20.43-.77.48-1.68.54-2.53.27-2.52-.82-5.36-17.55-6.66-20.7-1.32-1.58-16.27-3.92-19.53-5.58-1.28-.65-2.34-1.45-1.97-3.07.84-3.26,18.12-5.43,21.51-7.42,1.37-1.64,3.37-15.41,4.86-18.72.91-2.02,3.07-3.02,4.7-1.33,2.33,2.42,4.03,16.22,5.77,20.05ZM293.3,13.59c-1.94-.21-1.19,0-1.52,1.1-.64,2.17-1.76,9.28-2.97,10.52l-12.01,3.36,11.99,4.12,3.01,11.6c1.95.21,1.19,0,1.52-1.1.7-2.37,1.49-9.09,2.98-10.51l11.99-3.38-12.01-4.1-2.99-11.62Z"/>
        <path d="M351.61,73.66c5.35,5.15-13.76,6.87-15.39,8.22-1.85,2.81-2.84,16.34-6.55,16.33s-5.13-13.26-6.54-16.33c-1.05-1.05-12.75-2.69-15.03-3.9-1.99-1.05-1.61-4,.76-5.05,2.72-1.21,12.6-2.49,14.07-3.92,2.09-2.86,2.75-16.2,6.74-16.21s4.3,13.53,6.69,16.26c2.96,1.72,13.26,2.7,15.25,4.61ZM339.05,74.99c-6.75.18-8.35-2.97-9.37-9-1.5,6.25-2.57,8.53-9.38,9.36,6.99,1.8,7.58,2.39,9.38,9.36.64-.01,1.05-5.48,2.25-6.74,1.65-1.74,5.82-.86,7.12-2.99Z"/>
      </g>
      <path d="M52.55,153.57c-1.33.04-4.53.21-5.31,1.24-2.88,3.8-4.57,21.43-7.35,26.77-2.27,1.37-4.09.31-4.96-1.81-2.98-7.23-3.73-17.23-6.76-24.69-1.69-2.03-21.26-5.59-25.53-7.45-2.99-1.3-3.79-3.43-.51-5.09l26.28-7.08,6.52-25.3c.55-2.33,2.76-3.06,4.58-1.57,2.08,1.71,5.62,22.3,7.45,26.25l5.6,2.27v-48.28c0-8.84,18.94-18.35,26.06-21.15,50.5-19.83,156.19-20.55,205.96,1.42,7.94,3.5,19.35,9.62,22.02,18.44,1.6,75.96,1.6,152.69,0,228.63-3.12,10.3-18.47,17.28-27.9,20.81-50.21,18.76-149.52,18.68-199.53-.74-7.68-2.98-26.61-12.5-26.61-22.1v-160.56ZM217.55,123.64c23.13-2.57,51.67-5.72,72.02-17.58,26.26-15.3,4.79-28.03-13.33-34.63-49.42-18.01-150.47-18.51-198.91,2.46-18.87,8.16-29.14,19.75-6.53,32.67,21.61,12.34,51.93,14.65,76.25,17.84,2.54-20.05,14.1-40.51,26.71-56.07,10.07-12.42,7.57-3.36,8.64,5.44.59,4.81,1.89,9.46,3.66,13.94,2.66,1.97,6.19-13.83,9.36-13.5,2.62,0,4.96,7.62,5.83,9.93,4.12,10.98,6.39,21.77,4.3,33.51,5.42.69,3.03-8.63,7.1-8.94,4.64-.35,5.19,11.61,4.89,14.93ZM195.06,83.97c-6.59,16.47-14.3,9.27-17.07-4.31-.16-.79.11-7.14-1.7-5.81-10.84,15.15-21.66,31.58-24,50.54l10.43.67c-.07-5.5,14.02-30.34,18.33-30.47,4.18.97,2.35,6.5,2.81,9.9.87,6.36,4.62,6.05,8.54,9.44s4.67,5.65,4.14,11.21l15.76-.75v-3.75c-15.95,8.69-10.81-8.95-11.34-18.25l-5.9-18.42ZM57.8,103.42v35.18c3.38,1.33,16.93,2.63,17.21,6.34.06.8-.47,2.23-1.27,2.65-2.05,1.08-15.85,3.36-15.99,4.17l.05,99.49c1.22,7.41,3.93,14.35,7.64,20.82l4.35,5.76v-95.44c0-.92,2.38-4.82,3.13-5.86,4.77-6.63,13.43-9.76,20.53-13.19-3.51-13.45-.39-24.36,10.08-33.36,2.38-2.05,5.38-3.39,7.51-5.6-18.68-3.12-38.71-8.37-53.25-20.97ZM290.3,184.64c1.07,8.62-.79,19.23,0,28.07,1.41-.79,1.98-3.89,2.45-5.42,5.15-16.88,8.28-47.94,9.54-66.08.85-12.27-.61-25.43,0-37.79-9.16,10.1-24.22,11.52-34.73,18.1-6.11,3.83-14.58,11.02-20.02,15.94-5.8,5.24-11.71,11.46-16.49,17.59,10.91,1.31,22.29,3.83,32.64,7.48,10.03,3.54,25.13,10.15,26.61,22.1ZM191.3,125.13c1.87-7.57-5.75-8.2-9.3-12.05-2.15-2.33-2.35-5.55-3.82-8.17-3.89,6.39-8.62,12.69-10.12,20.22h23.25ZM61.55,144.6l-17.98-4.89-5.27-18.32c-1.14.11-1.16,1.11-1.45,1.91-1.03,2.78-3.49,15.59-4.72,16.63l-18.58,5.04,18.42,5.57c1.96,1.71,3.53,12.67,4.88,16.09.31.78.27,1.81,1.44,1.92l4.89-17.96,18.37-5.98ZM255.8,123.64l-38.18,5.3c-1.23,8.6-4.34,16.92-10.57,23.13l18.59,1.34c4.93-7.72,12.35-13.38,18.51-20.06l11.64-9.7ZM146.97,129.7l-25.81-3.13c-15.53,4.13-28.15,18.4-22.85,35.24,18.43-5.72,37.7-8.93,56.99-9.74-4.96-6.33-8.56-14.18-8.33-22.37ZM161.31,130.36l-9-.75c1.31,38.14,55.52,36.11,60.01.39l-14.26.37c10.06,18.28-15.5,27.68-28.75,18.58-5.47-3.76-8.34-12.17-8-18.59ZM192.8,130.37h-26.25c-.47,13.32,10.24,20.32,22.5,15.34,8.24-3.34,6.36-8.55,3.75-15.34ZM182.3,162.56v19.84c0,1.37-4.26,1.94-5.1-.9s.51-18.18-.19-18.9c-3.64-.36-7.24-1.12-10.66-2.46-1.95-.77-5.11-3.24-6.33-3.43-4.8-.74-23.05,2.1-28.97,2.98-10.34,1.54-20.42,3.98-30.5,6.62,8.91,17.27,24.18,30.02,36.76,44.52,23.57,3.53,47.57,2.97,71.24,1.88.46-.47-1.47-11.07-1.53-13.06-.45-14.87,5.95-28.98,14.28-40.82-6.22-.38-13.67-2.42-19.83-1.46-2.27.36-5.25,2.51-7.92,3.32-3.55,1.08-7.55,1.63-11.25,1.87ZM213.8,211.97c10.37-.94,20.74-2.42,30.89-4.73,13.47-3.06,59.07-15.86,31-33.47-13.38-8.39-32.48-11.39-47.85-14.09-12.7,14.16-18.23,33.45-14.05,52.3ZM96.02,168.55c-15.91,5.37-32.07,16.05-10.22,28.56,12.55,7.19,29.1,10.25,43.25,12.59-11.31-13.24-25.7-25.08-33.03-41.15ZM290.3,250.88c2.15-1.44,12-15.81,12-16.84v-43.04l-6.18,22.65c-.05,2.04-5.82,10.05-5.82,10.66v26.57ZM75.05,196.24v87.2l5.31,3.78c18.65-6.69,38.39-10.21,58.08-12.38,3.08-.34,12.21-.19,14.15-.85,1.67-.57,2.68-9.45,2.75-11.47.67-17.38-9.43-33.75-20.62-46.11-20.53-4.33-42.69-6.82-59.66-20.18ZM285.05,196.24l-10.74,6.87c-18.3,8.62-38.51,11.18-58.27,14.48,10.95,30.08,51.51,27.8,69.02,5.22v-26.57ZM285.05,256.5v-25.08l-10,6.87c-24.32,13.53-55.01,7.36-64.71-20.39-22.54,1.23-45.25,1.24-67.79-.69,12.55,15.95,21.77,35.4,16.5,56.13,14.36.29,28.79-.37,43.15-.03,4.73.11,11.07,1.58,15.71,1.59,4.59,0,12.22-2.36,17.35-2.96,17.34-2,37.1-1.4,49.78-15.44ZM302.3,299.54v-54.64l-11.29,13.06c-1.55,10.95-.42,22.47-.59,33.61l11.88,7.98ZM285.05,264.36c-4.28,1.94-8.11,4.84-12.48,6.63-6.08,2.49-12.27,3.53-18.75,4.49-1.9.28-13.81.86-13.78,1.98,15.35,2.4,30.42,6.36,45.01,11.6v-24.7ZM57.8,300.29c1.93-1.15,3.16-3.05,5-4.36,4.74-3.38,8.96-2.7,6.61-10.6l-11.61-15.73v30.69ZM204.8,278.58h-48c-10.89,25.5-44.1,28.98-67.49,19.82-2.9-1.13-13.35-8.48-14.3-2.21-1.17,7.68,17,15.45,22.9,17.58,16.41,5.92,35.19,8.38,52.55,9.77l.97-.18c5.88-13.9,17.99-24.03,30.18-32.37l23.19-12.41ZM150.8,279.34c-21.79,1.46-43.93,4.17-64.5,11.59,19.92,11.25,52.07,9.79,64.5-11.59ZM285,295.12c-14.61-6.43-30.4-10.25-46.19-12.67-17.73-2.71-22.29-2.99-38.77,4.47-14.49,6.56-31.95,18.61-40.54,32.14-.48.76-3.11,4.8-2.68,5.17,34.31,1.21,74.43,1.14,106.88-11.21,8.02-3.05,20.42-8.15,21.31-17.91ZM148.56,328.74c-17.98-1.6-37.24-4.31-54.19-10.67-10.3-3.87-21.02-9.01-24.93-20-25.23,15.05-3.86,27.37,13.29,33.87,20.17,7.64,42.23,10.19,63.57,12.52l2.26-15.72ZM151.63,344.38c1.17,1.37,19.47.75,22.83.79,31.31.32,94.88-2.16,120.28-22.11,12.35-9.7,7.3-19.32-5.18-25.01-1.93,11.23-15.82,17.08-25.54,20.55-21.45,7.67-44.53,9.75-67.12,10.85-2.01.1-3.89.93-5.93.81l-37.09-.71-2.24,14.82Z"/>
    </g>
  </g>
</svg>