<?xml version="1.0" encoding="UTF-8"?>
<svg id="Livello_2" data-name="Livello 2" xmlns="http://www.w3.org/2000/svg" viewBox="0 0 334.95 334.95">
  <defs>
    <style>
      .cls-1 {
        fill: #1d1d1b;
        font-family: Pristina-Regular, Pristina;
        font-size: 120px;
      }

      .cls-2 {
        fill: none;
        stroke: #1d1d1b;
        stroke-miterlimit: 10;
        stroke-width: 12px;
      }
    </style>
  </defs>
  <g id="Livello_1-2" data-name="Livello 1">
    <g>
      <g>
        <path class="cls-2" d="M116.96,116.96c2.28,1.92,4.57,3.81,6.84,5.65,11.28-10.98,26.68-17.76,43.67-17.76s32.39,6.78,43.67,17.76c2.28-1.85,4.56-3.74,6.84-5.65,11.4-13.54,23.87-26.74,35.18-35.18,5.69-7.63,9.23-14.72,9.23-20.59,0-30.48-24.71-55.18-55.18-55.18-15.61,0-29.7,6.49-39.74,16.92-10.04-10.42-24.13-16.92-39.74-16.92-30.48,0-55.18,24.71-55.18,55.18,0,5.87,3.53,12.97,9.23,20.59,11.31,8.44,23.78,21.64,35.18,35.18Z"/>
        <path class="cls-2" d="M116.96,217.99c1.92-2.28,3.81-4.57,5.65-6.84-10.98-11.28-17.76-26.68-17.76-43.67s6.78-32.39,17.76-43.67c-1.85-2.28-3.74-4.56-5.65-6.84-13.54-11.4-26.74-23.87-35.18-35.18-7.63-5.69-14.72-9.23-20.59-9.23-30.48,0-55.18,24.71-55.18,55.18,0,15.61,6.49,29.7,16.92,39.74-10.42,10.04-16.92,24.13-16.92,39.74,0,30.48,24.71,55.18,55.18,55.18,5.87,0,12.97-3.53,20.59-9.23,8.44-11.31,21.64-23.78,35.18-35.18Z"/>
        <path class="cls-2" d="M217.99,217.99c-2.28-1.92-4.57-3.81-6.84-5.65-11.28,10.98-26.68,17.76-43.67,17.76s-32.39-6.78-43.67-17.76c-2.28,1.85-4.56,3.74-6.84,5.65-11.4,13.54-23.87,26.74-35.18,35.18-5.69,7.63-9.23,14.72-9.23,20.59,0,30.48,24.71,55.18,55.18,55.18,15.61,0,29.7-6.49,39.74-16.92,10.04,10.42,24.13,16.92,39.74,16.92,30.48,0,55.18-24.71,55.18-55.18,0-5.87-3.53-12.97-9.23-20.59-11.31-8.44-23.78-21.64-35.18-35.18Z"/>
        <path class="cls-2" d="M328.95,127.74c0-30.48-24.71-55.18-55.18-55.18-5.87,0-12.97,3.53-20.59,9.23-8.44,11.31-21.64,23.78-35.18,35.18-1.92,2.28-3.81,4.57-5.65,6.84,10.98,11.28,17.76,26.68,17.76,43.67s-6.78,32.39-17.76,43.67c1.85,2.28,3.74,4.56,5.65,6.84,13.54,11.4,26.74,23.87,35.18,35.18,7.63,5.69,14.72,9.23,20.59,9.23,30.48,0,55.18-24.71,55.18-55.18,0-15.61-6.49-29.7-16.92-39.74,10.42-10.04,16.92-24.13,16.92-39.74Z"/>
      </g>
      <text class="cls-1" transform="translate(156.08 196.9)"><tspan x="0" y="0">i</tspan></text>
    </g>
  </g>
</svg>