<?xml version="1.0" encoding="UTF-8"?>
<svg id="Livello_2" data-name="Livello 2" xmlns="http://www.w3.org/2000/svg" viewBox="0 0 378.72 376.86">
  <defs>
    <style>
      .cls-1 {
        opacity: .7;
      }
    </style>
  </defs>
  <g id="Livello_1-2" data-name="Livello 1">
    <g>
      <g>
        <path d="M262.63,180.95c-.21.37-.3,1.96-.16,2.1.4.43,9.4,1.86,11.39,2.46,44.38,13.34,84.82,49.13,99.6,93.53,5.77,17.34,8,29.18.44,46.51-22.41,51.36-111.39,49.4-158.18,50.6-49.86,1.27-112.63,2.42-160.75-11.41-106.81-30.69-36.49-140.61,30.35-171.33,9.62-4.42,19.77-7.1,29.68-10.72-28.75-25.72-38.92-61.28-29.12-98.75C104.28,13.61,182.78-23.72,247.44,16.56c52.89,32.95,63.95,111.17,22.53,157.9-1.33,1.5-7.1,6.06-7.34,6.48ZM170.4,7.9c-4.51.78-9.08,1.46-13.47,2.99-27.23,9.53-52.43,37.25-61.38,64.37-.77,2.33-.95,3.85-1.5,5.99-.79,3.12-1.77,5.56-2.25,8.98-.13.94.09,2.03,0,2.99-.49,5.17-1.01,10.28-.75,15.72.05.99-.08,2.01,0,2.99.19,2.41,1.15,4.66,1.5,6.74.32,1.88.28,3.98.75,5.99,1.12,4.76,2.69,8.96,4.49,13.47.69,1.73,1.6,3.08,2.25,4.49.79,1.74,1.34,3.51,2.25,5.24.49.94,1.12,1.57,1.5,2.25,2.51,4.5,4.33,7.71,7.49,11.98.55.74,1.21,1.12,1.5,1.5,1.72,2.23,2.77,3.27,4.49,5.24,1.02,1.17,1.53,2.21,2.99,3.74,1.6,1.68,2.77,2.89,4.49,4.49,1.23,1.15,2.16,1.52,2.99,2.25,4.85,4.19,7.2,6.16,12.73,9.73,1.36.88,2.39,1.45,3.74,2.25,6.66,3.92,9.79,5.5,17.22,8.23.87.32,1.82,1.12,2.99,1.5,44.25,14.19,83.77-5.02,107.79-42.67.83-1.3,1.02-2.19,1.5-2.99,4.55-7.72,8.07-14.4,10.48-23.2.17-.61-.16-1.61,0-2.25,1.72-7.04,2.79-11.17,2.99-18.71.06-2.21.11-4.53,0-6.74-.26-5.38-1.13-9.79-2.25-14.97-.23-1.05-.49-1.97-.75-2.99-.73-2.88-1.47-4.38-2.25-6.74-.54-1.63-.84-2.75-1.5-4.49-1.12-2.93-1.85-4.25-2.99-6.74-.24-.53-.5-.99-.75-1.5-2.48-5.11-3.53-7.08-6.74-11.98-.53-.81-.94-1.45-1.5-2.25-1.38-1.97-2.13-3.22-3.74-5.24-1.04-1.3-1.88-2.45-2.99-3.74-3.27-3.79-6.1-6.61-9.73-9.73-2.44-2.1-3.52-2.45-5.24-3.74-1.14-.86-2.83-2.75-5.24-4.49-.99-.71-1.69-1.36-2.99-2.25-4.77-3.24-7.42-4.93-12.73-7.49-1.01-.49-1.93-1.04-2.99-1.5-2.5-1.08-4.89-2.11-7.49-2.99-2.33-.79-3.94-.94-5.99-1.5-7.82-2.12-12.57-3.41-20.96-3.74-.99-.04-2,0-2.99,0-6.03,0-9.2.5-14.97,1.5ZM99.29,195.03c-2.17.8-3.74,1.29-5.99,2.25-26.07,11.07-49.53,29.58-64.37,53.89-2.39,1.84-3.2,5.35-4.49,7.49-2.79,4.6-4.55,7.55-6.74,12.73-.33.79-.48,1.55-.75,2.25-1.26,3.21-2.74,6.42-3.74,9.73-.48,1.59-.41,3.21-.75,4.49-.84,3.22-1.62,5.31-2.25,8.98-.45,2.65-.57,4.09-.75,6.74-.23,3.4-.74,3.45,0,7.49.41,2.22,1.07,3.01,1.5,4.49.88,3.08.86,3.61,2.25,6.74.85,1.92,1.15,2.63,2.25,4.49,2.76,4.68,4.5,6.7,8.23,10.48.25.25.49.51.75.75,2.03,1.92,2.98,2.78,5.24,4.49.55.42,1.2.53,1.5.75,2.75,2,3.48,2.23,5.99,3.74.23.14.62,1.01,1.5,1.5,2.84,1.56,6.15,2.27,7.49,2.99.18.1.05.94,2.99,2.25,2.69,1.19,4.76,1.97,7.49,2.99,2.49.93,4.26,1.46,6.74,2.25,2.84.9,5.38,1.49,8.23,2.25,1.34.36,2.82,1.1,4.49,1.5,3.2.76,6.08.92,8.98,1.5,2.8.56,5.38,1.01,8.23,1.5,3.38.58,6.31,1.02,9.73,1.5,3.85.54,7.28,1.06,11.23,1.5,3.65.4,7.74.46,11.23.75.15.01.81.7,1.5.75,3.5.26,6.98.57,10.48.75.99.05,2-.04,2.99,0,2.83.12,10.35,1.08,11.98,0,.47.14,1.1.71,1.5.75,3.89.38,8.69-.02,12.73,0,3.73.01,7.5.06,11.23,0,4.53-.07,9.1-.61,13.47-.75,1.49-.05,3,.05,4.49,0,4.78-.17,9.55-.52,14.22-.75,2.97-.15,6.01.17,8.98,0,5.21-.3,10.53-1.12,15.72-1.5,1.48-.11,3.01.11,4.49,0,4.98-.38,10-1.07,14.97-1.5,3.7-.32,7.52-.4,11.23-.75,5.72-.55,11.52-1.62,17.22-2.25,4.4-.48,9.81-.2,14.22-.75,6.52-.81,12.44-2.33,18.71-3.74,5.36-1.21,8.83-1.67,14.22-3.74,16.1-6.19,28.1-14.95,34.43-31.44,1.01-2.62,1.58-3.84,2.25-6.74.82-3.57,1.36-6.79,1.5-10.48.06-1.72.08-3.52,0-5.24-.1-2.18-.43-5.33-.75-7.49-.1-.71-.71-1.27-.75-1.5-.49-2.74-.79-4.08-1.5-6.74-.5-1.87-.99-2.93-1.5-4.49-.8-2.49-1.38-3.77-2.25-5.99-.25-.64-.37-1.34-.75-2.25-1.11-2.65-2-3.96-2.99-5.99-.9-1.84-1.1-2.49-2.25-4.49-.95-1.65-1.23-4.32-2.99-5.99-.51-.48-.41-.87-1.5-.75.68-2.94-2.2-4.02-2.99-5.24-.23-.36-.36-.93-.75-1.5-1.32-1.93-2.31-3.35-3.74-5.24-.21-.28-.54-.48-.75-.75-1.69-2.18-2.83-3.32-4.49-5.24-1.23-1.43-2.12-2.74-3.74-4.49-1.5-1.61-2.96-2.96-4.49-4.49-1.28-1.28-2.41-2.49-3.74-3.74-1.78-1.67-3.54-3.03-5.24-4.49-.66-.57-1.23-1.41-2.25-2.25-2.01-1.66-4.01-3.02-5.99-4.49-1.72-1.28-3.02-1.96-4.49-2.99-2.25-1.57-4.37-2.64-5.99-3.74-.6-.41-.92-1.01-2.99-2.25-2.49-1.47-4.12-2.37-6.74-3.74-.5-.27-1-.49-1.5-.75-2.43-1.24-4.78-2.58-7.49-3.74-.45-.19-.92-.51-1.5-.75-3.18-1.32-5.14-1.42-7.49-2.25-.35-.12-.81-.52-1.5-.75-.3-.1-1-1.04-1.99-1.35-3.1-.96-13.7-4.13-16.2-3.75-1.9.29-10.1,6.72-12.75,8.22-4.05,2.31-10.47,5.75-14.72,7.36s-10.84,2.37-14.97,4.49c-6.52.68-12.88,1.96-19.46,2.25-1.98.09-4.01.02-5.99,0-4.51-.04-10.59-.12-14.97-.75-1.2-.17-3.59-1.18-5.24-1.5-3.3-.64-8.21-1.34-11.23-2.25-.7-.21-1.88-1.13-2.99-1.5-5.71-1.86-12.89-4.54-17.96-7.49-1.2-.7-2.84-2-4.49-2.99-2.51-1.51-5.67-4.09-7.98-6-7.99,1.01-15.31,4.03-22.71,6.75Z"/>
        <path class="cls-1" d="M185.37,6.4c-1.31,1.58-3.53,2.33-5.04,3.53-.59.47-2.13.53-.56,1.72l8.6-5.25c8.39.33,13.14,1.62,20.96,3.74l-36.67,25.44,3.41-.7,39.26-23.25c2.59.89,4.98,1.91,7.49,2.99-6.15,5.44-13.71,8.95-20.29,13.79-.4.29-2.72.79-1.41,1.93,1.07.94,22.18-12.47,24.7-14.22,5.31,2.56,7.95,4.25,12.73,7.49l-27.69,18.71,3.41-.7,27.28-15.76c2.41,1.74,4.1,3.64,5.24,4.49l-54.64,36.67,3.53-.58,56.35-32.35c3.63,3.12,6.46,5.94,9.73,9.73l-52.39,35.18,55.39-31.44c1.61,2.02,2.37,3.27,3.74,5.24l-32.94,21.7,34.43-19.45c3.2,4.89,4.26,6.87,6.74,11.98-8.21,5.04-16.9,9.75-24.79,15.28-.9.63-1.83.03-1.4,1.94l26.94-15.72c1.15,2.49,1.88,3.81,2.99,6.74l-53.89,35.93,55.39-31.44c.78,2.35,1.52,3.86,2.25,6.74l-38.92,25.45,39.67-22.45c1.12,5.18,1.99,9.59,2.25,14.97l-50.9,34.43,50.9-27.69c-.21,7.55-1.27,11.67-2.99,18.71-5.78,1.58-10.4,6.65-15.73,9.36.13,2.69,14.26-7.32,15.73-7.11-2.41,8.8-5.93,15.48-10.48,23.2l-5.97,4.12,4.48-1.13c-24.02,37.65-63.54,56.86-107.79,42.67l23.2-16.46-26.19,14.97c-7.42-2.73-10.55-4.32-17.22-8.23,18.56-10.93,38.11-22.73,55.47-35.5.85-.62,1.86,0,1.41-1.93l-60.63,35.18c-5.53-3.57-7.88-5.54-12.73-9.73l32.94-21.7-35.93,19.45c-1.72-1.61-2.89-2.81-4.49-4.49l52.4-35.17-55.39,31.43c-1.72-1.97-2.77-3.01-4.49-5.24,7.68-4.87,15.84-9.31,23.29-14.53.42-.3,2.69-.82,1.4-1.94-1.14-.99-23.23,13.56-26.19,14.97-3.16-4.27-4.98-7.48-7.49-11.98l31.43-20.21-32.93,17.96c-.91-1.73-1.46-3.5-2.25-5.24l51.64-35.18-53.89,30.69c-1.8-4.51-3.37-8.72-4.49-13.47l55.39-37.42-56.14,31.43c-.35-2.08-1.31-4.32-1.5-6.74l24.7-16.46c-1.27-.26-2.18.36-3.24.87-7.06,3.37-14.32,9.05-21.46,12.6-.26-5.44.25-10.55.75-15.72,6.38-3.88,13.34-7.56,18.71-12.72l-18.71,9.72c.48-3.43,1.45-5.86,2.25-8.98l32.93-21.72c.19-1.76.05-1.74-1.55-1.17l-29.88,16.91c8.95-27.13,34.15-54.84,61.38-64.37l-2.15,2.71-10.94,9.28,26.56-14.98c5.77-1,8.94-1.5,14.97-1.5ZM178.26,11.64v.75c.49-.25.49-.5,0-.75ZM200.34,30.36c-1.05-.54-2,.47-1.49.73,1.05.54,2-.47,1.49-.73ZM128.11,57.3v.75c.49-.25.49-.5,0-.75ZM208.57,79.01c-1.05-.54-2,.47-1.49.73,1.05.54,2-.47,1.49-.73ZM247.5,85.74c1.1.25,1.56-.31,2.23-1.12-.74-.32-2.95.77-2.23,1.12ZM156.55,104.46v.75c.49-.25.49-.5,0-.75ZM155.42,105.21c-.4-.39-4.29.97-2.99,2.24.4.39,4.29-.97,2.99-2.24ZM225.79,111.2c-.4-.39-4.29.97-2.99,2.24.4.39,4.29-.97,2.99-2.24ZM242.26,113.43c1.1.25,1.56-.31,2.23-1.12-.74-.32-2.95.77-2.23,1.12ZM221.67,113.44v.75c.49-.25.49-.5,0-.75ZM140.08,126.91v.75c.49-.25.49-.5,0-.75ZM135.97,129.9c.72.67,2.41-1.19,2.98-1.87-1.24-.14-4.3.63-2.98,1.87ZM140.45,145.63c-1.1-.25-1.56.31-2.23,1.12.74.32,2.95-.77,2.23-1.12ZM202.21,153.11v.75c.49-.25.49-.5,0-.75ZM266.59,159.85v.75c.49-.25.49-.5,0-.75ZM188.74,183.8v.75c.49-.25.49-.5,0-.75Z"/>
      </g>
      <path class="cls-1" d="M99.29,195.03c7.4-2.72,14.71-5.74,22.71-6.75,2.31,1.91,5.47,4.49,7.98,6l-36.67,25.44,3.41-.7,37.76-21.75c5.08,2.95,12.25,5.63,17.96,7.49-4.54,3.96-10.16,6.6-15.06,10.04-.42.3-2.69.83-1.4,1.94.84.72,16.75-10.01,19.46-10.48,3.02.91,7.93,1.6,11.23,2.25l-47.91,32.18,53.15-30.68c4.39.63,10.46.71,14.97.75-9.41,8.04-22.38,13.31-31.99,20.74-.63.48-2.11.55-.56,1.73l38.54-22.47c6.58-.29,12.95-1.56,19.46-2.25-.23.12-.85,1.21-1.66,1.67-17.57,9.9-33.61,22.6-51.48,32.03l2.43.56c20.36-12.56,41.66-23.6,62.16-35.9,1.27-.76,2.78-1.5,3.52-2.85,4.25-1.61,10.67-5.05,14.72-7.36,2.65-1.51,10.85-7.94,12.75-8.22,2.5-.38,13.1,2.8,16.2,3.75.99.31,1.69,1.25,1.99,1.35-3.31,1.71-6.62,3.58-9.74,5.63-.37.25-2.91.65-1.49,1.85,1.01.84,10.67-6.25,12.72-6.73,2.35.82,4.31.92,7.49,2.25-2.88,2.66-6.5,4.25-9.74,6.38-.37.24-2.93.66-1.49,1.85.71.58,11.54-5.9,12.72-7.48,2.71,1.16,5.06,2.5,7.49,3.74l-26.94,17.21,28.44-16.46c2.61,1.38,4.25,2.27,6.74,3.74l-53.14,33.68,56.14-31.43c1.62,1.1,3.74,2.17,5.99,3.74l-89.07,56.89,93.56-53.89c1.98,1.47,3.98,2.83,5.99,4.49l-53.14,33.68,55.39-31.44c1.7,1.46,3.46,2.82,5.24,4.49l-79.34,50.9,83.08-47.15c1.53,1.53,2.99,2.88,4.49,4.49l-88.32,57.63,92.07-53.14c1.66,1.92,2.8,3.06,4.49,5.24l-3.74,2.99,4.49-2.24c1.43,1.89,2.42,3.31,3.74,5.24-.52.35-7.46,3.24-5.98,4.49.97.82,5.05-3.34,6.73-2.99.79,1.22,3.67,2.3,2.99,5.24l-11.97,7.48c4.9-.72,9.15-4.44,13.47-6.73,1.76,1.67,2.05,4.34,2.99,5.99l-62.12,41.17,64.37-36.68c.99,2.03,1.88,3.34,2.99,5.99l-17.96,11.22c6.76-.96,12.12-7.07,18.71-8.97.87,2.22,1.44,3.5,2.25,5.99l-44.16,29.19,45.66-24.69c.71,2.65,1,4,1.5,6.74l-3.38,1.48-8.59,6c4.68-.17,8.45-4.34,12.72-5.98.32,2.16.64,5.3.75,7.49l-30.69,21.7,3.53-.58,27.16-15.88c-.14,3.69-.68,6.91-1.5,10.48l-20.95,14.98c-.14,1.44,2.37.66,3.02.4,4.91-1.94,10.21-7.37,15.68-8.65-6.33,16.48-18.34,25.25-34.43,31.44,1.09-3.96,5.97-5.3,8.23-8.61l-1.13-.38-21.33,12.74c-6.27,1.41-12.19,2.93-18.71,3.74l31.05-25.46-45.27,26.21c-5.7.63-11.49,1.7-17.22,2.25l39.28-28.46-50.51,29.21c-4.97.43-9.99,1.12-14.97,1.5,3.61-3.98,9.41-5.56,12.73-9.72-5.84,2.04-12.17,5.83-17.22,9.72-5.19.37-10.51,1.19-15.72,1.5l46.96-31.22.56-1.73-56.5,32.95c-4.67.23-9.44.58-14.22.75,7.01-5.69,16.44-9.65,23.45-15.1.54-.42,2.22-1.27,1.64-2.1l-29.58,17.2c-4.38.13-8.94.68-13.47.75l59.5-40.43-70.73,40.43c-4.03-.02-8.84.38-12.73,0,4.24-2.61,8.56-5.14,12.73-7.88.38-.25,2.91-.66,1.48-1.85-.63-.53-12.92,6.66-14.51,7.59-.7.41-.96,1.22-1.2,1.38-1.62,1.08-9.14.12-11.98,0,2.24-2.56,6.04-3.91,8.75-5.81.66-.47,2.19-.44.59-1.68l-12.34,7.5c-3.5-.18-6.98-.49-10.48-.75.88-3.65,6.86-2.85,7.87-6.72-1.83,1.17-5.87,2.39-7.4,3.67-.97.81.29,2.83-1.97,2.3-3.49-.29-7.58-.35-11.23-.75l90.57-59.88-101.8,58.38c-3.42-.48-6.35-.92-9.73-1.5l87.57-56.13-95.81,54.64c-2.9-.58-5.79-.74-8.98-1.5l60.63-38.92-65.12,37.42c-2.85-.76-5.39-1.35-8.23-2.25l92.07-59.13-98.81,56.88c-2.72-1.02-4.8-1.81-7.49-2.99l52.39-33.68-55.39,31.44c-1.33-.73-4.65-1.43-7.49-2.99,7.76-4.87,16.57-9.3,24.04-14.53.43-.3,2.68-.82,1.4-1.94-1.16-1.01-23.65,13.88-26.94,14.97-2.51-1.51-3.24-1.74-5.99-3.74,1.54-.76,3.06-1.69,4.5-2.64.37-.24,2.92-.65,1.48-1.85-.9-.75-6.11,3.34-7.48,3.74-2.26-1.71-3.21-2.57-5.24-4.49,1.97-.59,3.9-1.87,5.64-2.97,1.53-.97,3.71-2.38,4.84-3.76l-11.22,5.98c-3.74-3.78-5.47-5.8-8.23-10.48l78.59-50.9-80.84,46.41c-1.39-3.12-1.37-3.66-2.25-6.74l59.13-38.17-60.63,33.68c-.74-4.03-.23-4.09,0-7.49l75.6-48.66c-.75-1.79-4.22,1.75-5.47,1.64l-69.38,40.28c.62-3.67,1.4-5.76,2.25-8.98l35.18-22.83-34.43,18.34c1-3.31,2.48-6.52,3.74-9.73l8.98-5.62c-2.78-.72-5.54,2.68-8.23,3.37,2.18-5.18,3.94-8.12,6.74-12.73l39.67-26.21c-.33-1.43-4.76,1.26-5.47,1.64-10.03,5.4-19.41,12.12-29.7,17.08,14.84-24.31,38.3-42.82,64.37-53.89l-.75,1.49c.92.65,6.03-2.4,6.74-3.74ZM260.97,201.02c-.4-.39-4.29.97-2.99,2.24.4.39,4.29-.97,2.99-2.24ZM257.23,203.27c-1.03-.23-1.99.4-2.24,1.49h2.24s0-1.49,0-1.49ZM269.95,204.76c-.4-.39-4.29.97-2.99,2.24.4.39,4.29-.97,2.99-2.24ZM263.97,208.5c1.1.25,1.56-.31,2.23-1.12-.74-.32-2.95.77-2.23,1.12ZM132.98,218.23c1.1.25,1.56-.31,2.23-1.12-.74-.32-2.95.77-2.23,1.12ZM263.21,218.24c-.4-.39-4.29.97-2.99,2.24.4.39,4.29-.97,2.99-2.24ZM259.47,220.48c-.4-.39-4.29.97-2.99,2.24.4.39,4.29-.97,2.99-2.24ZM253.49,224.22c1.1.25,1.56-.31,2.23-1.12-.74-.32-2.95.77-2.23,1.12ZM153.18,233.21c-.4-.39-4.29.97-2.99,2.24.4.39,4.29-.97,2.99-2.24ZM149.44,235.46c-1.05-.54-2,.47-1.49.73,1.05.54,2-.47,1.49-.73ZM335.08,248.92c.72.67,2.41-1.19,2.98-1.87-1.24-.14-4.3.63-2.98,1.87ZM262.47,254.16c1.1.25,1.56-.31,2.23-1.12-.74-.32-2.95.77-2.23,1.12ZM337.33,256.41c.72.67,2.41-1.19,2.98-1.87-1.24-.14-4.3.63-2.98,1.87ZM218.3,268.39c-1.05-.54-2,.47-1.49.73,1.05.54,2-.47,1.49-.73ZM81.32,270.64h-2.24s0,1.49,0,1.49c1.03.23,1.99-.4,2.24-1.49ZM78.06,271.68l-5.53,3.23.83,1.42,5.53-3.23-.83-1.42ZM98.91,272.88v.75c.49-.25.49-.5,0-.75ZM94.8,275.87c.72.67,2.41-1.19,2.98-1.87-1.24-.14-4.3.63-2.98,1.87ZM246,276.62c-1.03-.23-1.99.4-2.24,1.49h2.24s0-1.49,0-1.49ZM243.01,293.08c1.1.25,1.56-.31,2.23-1.12-.74-.32-2.95.77-2.23,1.12ZM292.41,304.32c-1.05-.54-2,.47-1.49.73,1.05.54,2-.47,1.49-.73ZM207.83,307.32h-2.24s0,1.49,0,1.49c1.03.23,1.99-.4,2.24-1.49ZM102.66,319.29v.75c.49-.25.49-.5,0-.75ZM139.7,322.29c-1.1-.25-1.56.31-2.23,1.12.74.32,2.95-.77,2.23-1.12ZM70.84,328.28c-1.1-.25-1.56.31-2.23,1.12.74.32,2.95-.77,2.23-1.12ZM67.84,329.77c-.4-.39-4.29.97-2.99,2.24.4.39,4.29-.97,2.99-2.24ZM47.63,333.51c.54-1.05-.47-2-.73-1.49-.54,1.05.47,2,.73,1.49ZM45.77,333.51v.75c.49-.25.49-.5,0-.75ZM41.65,336.5c.72.67,2.41-1.19,2.98-1.87-1.24-.14-4.3.63-2.98,1.87ZM40.9,336.51c-.4-.39-4.29.97-2.99,2.24.4.39,4.29-.97,2.99-2.24ZM268.08,336.5v.75c.49-.25.49-.5,0-.75ZM222.42,352.97v.75c.49-.25.49-.5,0-.75ZM176.76,356.71v.75c.49-.25.49-.5,0-.75ZM172.65,359.7c.72.67,2.41-1.19,2.98-1.87-1.24-.14-4.3.63-2.98,1.87ZM171.89,359.71c-.4-.39-4.29.97-2.99,2.24.4.39,4.29-.97,2.99-2.24ZM136.34,362.7v.75c.49-.25.49-.5,0-.75ZM151.31,362.7v.75c.49-.25.49-.5,0-.75Z"/>
    </g>
  </g>
</svg>